<svg width="25" height="25" viewBox="0 0 25 25" fill="none" xmlns="http://www.w3.org/2000/svg">
<path d="M24.6284 15.5169C22.9605 22.2092 16.1822 26.2958 9.47761 24.6268C2.78524 22.9537 -1.29477 16.1755 0.373213 9.48313C2.04119 2.79079 8.81532 -1.29579 15.5036 0.373201C22.2123 2.02174 26.2923 8.82044 24.6284 15.5169Z" fill="#000008"/>
<path d="M14.9767 6.86974C15.1286 6.86974 15.2688 6.80741 15.3741 6.69833L16.1688 5.86855C16.2662 5.76336 16.4064 5.70493 16.5505 5.70493H16.5817C16.7337 5.70493 16.8739 5.77116 16.9752 5.88413L17.6452 6.64379C17.7738 6.78793 17.9569 6.86974 18.1478 6.86974H19.9437C18.2335 4.59466 15.5143 3.12598 12.4523 3.12598C9.39029 3.12598 6.66718 4.59466 4.95695 6.86974H14.9767Z" fill="white"/>
<path d="M15.9233 9.39805H17.5751L21.2916 9.39416C21.5487 10.1265 21.7162 10.9057 21.7824 11.7082H14.817C14.626 11.7082 14.443 11.6264 14.3144 11.4823L13.6444 10.7265C13.543 10.6135 13.4028 10.5473 13.2508 10.5473H13.2197C13.0795 10.5473 12.9392 10.6057 12.8418 10.7109L12.0471 11.5407C11.9419 11.6498 11.8017 11.7121 11.6497 11.7121H3.11426C3.18045 10.9057 3.348 10.1304 3.6051 9.40195H12.647C12.9275 9.40195 13.2002 9.27729 13.3872 9.06692L13.9638 8.41634C14.0651 8.30336 14.2053 8.23713 14.3572 8.23713C14.5092 8.23713 14.6494 8.30336 14.7507 8.41634L15.4208 9.1721C15.5493 9.31624 15.7324 9.39805 15.9233 9.39805Z" fill="white"/>
<path d="M8.67735 16.4025C8.57219 16.5116 8.43189 16.5739 8.28002 16.5739L4.01027 16.5778C3.65578 15.8454 3.39867 15.0624 3.24285 14.2404H9.31626C9.6006 14.2404 9.8733 14.1196 10.0603 13.9054L10.6369 13.2548C10.7343 13.1457 10.8784 13.0795 11.0304 13.0795C11.1823 13.0795 11.3225 13.1418 11.4238 13.2548L12.0938 14.0028C12.2224 14.1469 12.4055 14.2287 12.5964 14.2287H21.6617C21.5059 15.0507 21.2487 15.8337 20.8942 16.5661H11.4511C11.2602 16.5661 11.0771 16.4843 10.9486 16.3402L10.2785 15.5844C10.1811 15.4753 10.037 15.4091 9.88501 15.4091H9.85382C9.70971 15.4091 9.57336 15.4676 9.47208 15.5727L8.67735 16.4025Z" fill="white"/>
<path d="M8.91885 18.8919L19.3048 18.8958C17.5907 20.7267 15.1598 21.876 12.4523 21.876C9.74478 21.876 7.30997 20.7267 5.59974 18.8958H5.6387C5.92312 18.8958 6.19582 18.775 6.38277 18.5607L6.95936 17.9102C7.05675 17.8011 7.20086 17.7348 7.35281 17.7348C7.50476 17.7348 7.64499 17.7972 7.74626 17.9102L8.41637 18.6659C8.54488 18.8101 8.72802 18.8919 8.91885 18.8919Z" fill="white"/>
</svg>
