<svg width="40" height="40" viewBox="0 0 40 40" fill="none" xmlns="http://www.w3.org/2000/svg">
<path d="M39.3971 24.8381C36.726 35.5525 25.8741 42.0731 15.1584 39.4012C4.44722 36.7301 -2.07335 25.8775 0.598971 15.1639C3.26894 4.44838 14.1209 -2.07268 24.8332 0.598468C35.5481 3.26961 42.0683 14.1234 39.3968 24.8383L39.397 24.8381H39.3971Z" fill="#50AF95"/>
<path fill-rule="evenodd" clip-rule="evenodd" d="M22.5308 22.2679C22.3894 22.2785 21.6587 22.3221 20.0289 22.3221C18.7325 22.3221 17.8121 22.2832 17.4892 22.2679C12.4795 22.0475 8.74017 21.1754 8.74017 20.1313C8.74017 19.0871 12.4795 18.2162 17.4892 17.9923V21.3993C17.8169 21.4229 18.7549 21.4783 20.0513 21.4783C21.6069 21.4783 22.3858 21.4135 22.5261 21.4005V17.9947C27.5252 18.2174 31.2563 19.0895 31.2563 20.1313C31.2563 21.1731 27.5264 22.0451 22.5261 22.2667L22.5308 22.2679ZM22.5309 17.642V14.5932H29.5075V9.94409H10.5127V14.5932H17.4881V17.6408C11.8184 17.9012 7.55469 19.0243 7.55469 20.3701C7.55469 21.716 11.8184 22.8379 17.4881 23.0995V32.8691H22.5297V23.096C28.1864 22.8355 32.4431 21.7136 32.4431 20.369C32.4431 19.0243 28.1899 17.9024 22.5297 17.6408L22.5309 17.642Z" fill="white"/>
</svg>
