<svg width="40" height="40" viewBox="0 0 40 40" fill="none" xmlns="http://www.w3.org/2000/svg">
<path d="M39.4013 24.8381C36.7301 35.5525 25.8782 42.0731 15.1625 39.4012C4.45137 36.7301 -2.0692 25.8775 0.603121 15.1639C3.27309 4.44838 14.125 -2.07268 24.8374 0.598468C35.5523 3.26961 42.0724 14.1234 39.401 24.8383L39.4012 24.8381H39.4013Z" fill="#F7931A"/>
<path fill-rule="evenodd" clip-rule="evenodd" d="M28.8212 17.1503C29.2192 14.4887 27.1929 13.0581 24.422 12.1036L25.3209 8.49832L23.1263 7.95147L22.2512 11.4619C21.6743 11.318 21.0818 11.1824 20.4929 11.048L21.3742 7.51439L19.1809 6.96753L18.2816 10.5717C17.8041 10.463 17.3352 10.3555 16.8802 10.2423L16.8827 10.231L13.8562 9.47522L13.2724 11.8193C13.2724 11.8193 14.9007 12.1925 14.8664 12.2155C15.7551 12.4373 15.9158 13.0256 15.8891 13.4919L14.8652 17.5992C14.9264 17.6148 15.0058 17.6372 15.0934 17.6724L15.0297 17.6566L15.0296 17.6565C14.9755 17.643 14.9192 17.6289 14.8614 17.6151L13.4262 23.3688C13.3176 23.6388 13.0419 24.044 12.4206 23.8902C12.4426 23.922 10.8255 23.4921 10.8255 23.4921L9.73584 26.0043L12.5918 26.7162C12.9046 26.7947 13.2137 26.8752 13.5196 26.955L13.5198 26.955C13.7335 27.0108 13.9457 27.0661 14.1566 27.12L13.2484 30.7667L15.4405 31.3135L16.3399 27.7056C16.9388 27.8681 17.5199 28.0181 18.0889 28.1594L17.1925 31.7504L19.3873 32.2973L20.2954 28.6574C24.0378 29.3657 26.8517 29.0801 28.0362 25.6952C28.9906 22.9699 27.9887 21.3979 26.0198 20.3728C27.4538 20.0421 28.534 19.0989 28.822 17.1506L28.8213 17.1501L28.8212 17.1503ZM23.8068 24.1814C23.1846 26.6818 19.2708 25.6481 17.4801 25.1751L17.4801 25.1751C17.319 25.1325 17.1751 25.0945 17.0523 25.0641L18.2575 20.2328C18.4071 20.2702 18.59 20.3112 18.7971 20.3577C20.6494 20.7734 24.4444 21.6251 23.8069 24.1814H23.8068ZM19.1687 18.1157C20.6616 18.5141 23.9184 19.3833 24.4856 17.1107H24.4858C25.0649 14.7865 21.8999 14.0858 20.3541 13.7435C20.1802 13.705 20.0268 13.6711 19.9015 13.6398L18.8088 18.0214C18.912 18.0472 19.0331 18.0795 19.1687 18.1157Z" fill="white"/>
</svg>
