<svg width="40" height="40" viewBox="0 0 40 40" fill="none" xmlns="http://www.w3.org/2000/svg">
<path d="M39.3971 24.8381C36.726 35.5525 25.8741 42.0731 15.1584 39.4012C4.44722 36.7301 -2.07335 25.8775 0.598971 15.1639C3.26894 4.44838 14.1209 -2.07268 24.8332 0.598468C35.5481 3.26961 42.0683 14.1234 39.3968 24.8383L39.397 24.8381H39.3971Z" fill="#F3BA2F"/>
<path fill-rule="evenodd" clip-rule="evenodd" d="M19.9999 12.6934L14.821 17.8723L14.8211 17.8721L11.8079 14.8587L19.9999 6.66675L28.1945 14.8612L25.1812 17.8745L19.9999 12.6934ZM9.67994 16.9862L6.6665 20.0001L9.67973 23.0129L12.6932 19.9994L9.67994 16.9862ZM14.8211 22.1282L20 27.3068L25.1812 22.1258L28.1961 25.1375L28.1946 25.1391L20 33.3335L11.808 25.1415L11.8037 25.1372L14.8211 22.1282ZM30.3201 16.9882L27.3066 20.0016L30.3199 23.0149L33.3333 20.0014L30.3201 16.9882Z" fill="white"/>
<path d="M23.0562 19.9981H23.0575L20 16.9404L17.74 19.1997L17.4804 19.4595L16.9449 19.995L16.9407 19.9992L16.9449 20.0036L20 23.059L23.0577 20.0013L23.0592 19.9996L23.0564 19.9981" fill="white"/>
</svg>
