<svg width="25" height="25" viewBox="0 0 25 25" fill="none" xmlns="http://www.w3.org/2000/svg">
<path d="M10.0038 5.08741C10.6875 4.98991 11.25 5.55991 11.25 6.24991V13.7499H18.75C19.44 13.7499 20.01 14.3124 19.9125 14.9962C19.5922 17.1821 18.4571 19.166 16.735 20.5498C15.013 21.9337 12.8312 22.6151 10.6276 22.4574C8.42404 22.2997 6.3616 21.3145 4.85414 19.6995C3.34668 18.0845 2.50572 15.9591 2.5 13.7499C2.50011 11.645 3.25876 9.6107 4.63691 8.01973C6.01507 6.42876 7.92041 5.38772 10.0038 5.08741ZM21.3275 12.4999C21.95 12.4999 22.4863 12.0424 22.4988 11.4199L22.5 11.2499C22.5001 10.0865 22.2681 8.93477 21.8177 7.86208C21.3673 6.78939 20.7075 5.81729 19.8769 5.00265C19.0463 4.18801 18.0616 3.54719 16.9804 3.11767C15.8992 2.68815 14.7432 2.47856 13.58 2.50116C12.9575 2.51366 12.5 3.05116 12.5 3.67241V11.2499C12.5 11.5814 12.6317 11.8994 12.8661 12.1338C13.1005 12.3682 13.4185 12.4999 13.75 12.4999H21.3275Z" fill="black"/>
</svg>
