<svg width="25" height="25" viewBox="0 0 25 25" fill="none" xmlns="http://www.w3.org/2000/svg">
<path d="M16.0614 19.1044C16.1383 19.2223 16.1819 19.3588 16.1876 19.4994C16.1934 19.64 16.161 19.7795 16.094 19.9033C16.027 20.027 15.9278 20.1303 15.8069 20.2024C15.686 20.2744 15.5479 20.3124 15.4071 20.3124H0.998928C0.858201 20.3124 0.720092 20.2744 0.599192 20.2024C0.478291 20.1303 0.37909 20.027 0.312067 19.9033C0.245044 19.7795 0.21269 19.64 0.218422 19.4994C0.224154 19.3588 0.267759 19.2223 0.344631 19.1044C1.44434 17.4117 3.06191 16.1199 4.95596 15.4218C3.90889 14.7247 3.11394 13.7092 2.68867 12.5254C2.2634 11.3416 2.2304 10.0523 2.59452 8.84828C2.95865 7.64425 3.70059 6.58936 4.71062 5.83961C5.72065 5.08986 6.94514 4.68506 8.20303 4.68506C9.46092 4.68506 10.6854 5.08986 11.6954 5.83961C12.7055 6.58936 13.4474 7.64425 13.8115 8.84828C14.1757 10.0523 14.1427 11.3416 13.7174 12.5254C13.2921 13.7092 12.4972 14.7247 11.4501 15.4218C13.3442 16.1199 14.9617 17.4117 16.0614 19.1044ZM24.6464 19.0898C23.5464 17.4042 21.9324 16.1179 20.0439 15.4218C21.28 14.5892 22.1523 13.3167 22.4834 11.8636C22.8144 10.4104 22.5792 8.88566 21.8257 7.59977C21.0722 6.31387 19.857 5.36345 18.4274 4.94196C16.9978 4.52046 15.4614 4.65958 14.1308 5.33099C14.0799 5.35726 14.0354 5.3944 14.0005 5.43977C13.9655 5.48514 13.941 5.53764 13.9286 5.59354C13.9162 5.64945 13.9163 5.7074 13.9288 5.76328C13.9412 5.81916 13.9659 5.87162 14.0009 5.91693C14.9903 7.15112 15.5585 8.6697 15.6223 10.2502C15.6861 11.8308 15.2421 13.3902 14.3554 14.7001C14.2981 14.7857 14.2769 14.8905 14.2965 14.9917C14.316 15.0928 14.3748 15.1821 14.4599 15.2402C15.616 16.0471 16.6058 17.0693 17.3749 18.2509C17.6851 18.726 17.8118 19.2977 17.7314 19.8593C17.7223 19.9152 17.7255 19.9723 17.7407 20.0269C17.7559 20.0814 17.7828 20.1319 17.8195 20.175C17.8562 20.2181 17.9018 20.2527 17.9532 20.2765C18.0046 20.3002 18.0605 20.3125 18.1171 20.3124H24.0058C24.1778 20.3125 24.345 20.2558 24.4815 20.151C24.618 20.0463 24.7161 19.8995 24.7606 19.7333C24.7878 19.6241 24.7917 19.5103 24.772 19.3994C24.7523 19.2885 24.7095 19.183 24.6464 19.0898Z" fill="#1783F5"/>
</svg>
