<svg width="239" height="71" viewBox="0 0 239 71" fill="none" xmlns="http://www.w3.org/2000/svg">
<g clip-path="url(#clip0_102_11)">
<path d="M42.7285 48.5053C40.4406 46.2382 40.4406 42.5654 42.7285 40.2983L61.004 22.1887C63.2918 19.9216 66.9983 19.9216 69.2862 22.1887C71.574 24.4558 71.574 28.1286 69.2862 30.3957L51.0079 48.5053C48.7228 50.7724 45.0136 50.7724 42.7285 48.5053Z" fill="url(#paint0_linear_102_11)"/>
<path d="M48.5674 28.1421C46.2687 30.3984 42.5594 30.3794 40.2825 28.1015L22.089 9.89173C19.8121 7.61381 19.8312 3.93827 22.13 1.68202C24.4288 -0.574224 28.1408 -0.555264 30.4177 1.72265L48.6112 19.9324C50.8881 22.2103 50.8717 25.8859 48.5702 28.1421H48.5674Z" fill="url(#paint1_linear_102_11)"/>
<path d="M28.0693 21.7661C30.4528 24.147 30.5567 27.8767 28.2989 30.095L10.2612 47.8091C8.00339 50.0274 4.24223 49.892 1.85871 47.5085C-0.527546 45.1249 -0.628682 41.3952 1.6291 39.1769L19.6668 21.4627C21.9246 19.2444 25.6857 19.3798 28.0693 21.7661Z" fill="url(#paint2_linear_102_11)"/>
<path d="M21.9351 42.2156C24.2831 39.9567 28.0415 40.019 30.3294 42.3565L48.6021 61.0267C50.8873 63.3615 50.8353 67.0858 48.4846 69.3447C46.1339 71.6037 42.3755 71.5414 40.0903 69.2039L21.8203 50.5337C19.5325 48.1989 19.5844 44.4746 21.9351 42.2156Z" fill="url(#paint3_linear_102_11)"/>
</g>
<path d="M124.6 48H118.6V21.2H125L134.6 33.88L138.28 39.52H138.72L138.44 34.12V21.2H144.44V48H138.04L128.16 35.2L124.76 30.16H124.36L124.6 35.08V48ZM155.903 48.4C150.263 48.4 147.583 44.92 147.583 40.44V27.96H153.583V38.44C153.583 41.68 154.943 43.04 158.743 43.04C162.663 43.04 164.063 41.52 164.063 38.12V27.96H170.063V48H164.463V41.88H164.143C163.623 45.24 161.183 48.4 155.903 48.4ZM179.131 48H173.131V21.2H195.811V26.6H179.131V32.64H195.211V38H179.131V48ZM204.366 25.92H198.366V21.2H204.366V25.92ZM204.366 48H198.366V27.96H204.366V48Z" fill="#171717"/>
<defs>
<linearGradient id="paint0_linear_102_11" x1="41.0126" y1="50.2056" x2="76.6862" y2="31.1038" gradientUnits="userSpaceOnUse">
<stop stop-color="#2600FC"/>
<stop offset="1" stop-color="#FF00EA"/>
</linearGradient>
<linearGradient id="paint1_linear_102_11" x1="20.3936" y1="29.8222" x2="56.072" y2="10.8317" gradientUnits="userSpaceOnUse">
<stop stop-color="#2600FC"/>
<stop offset="1" stop-color="#FF00EA"/>
</linearGradient>
<linearGradient id="paint2_linear_102_11" x1="0.000182844" y1="49.3884" x2="35.5181" y2="30.273" gradientUnits="userSpaceOnUse">
<stop stop-color="#2600FC"/>
<stop offset="1" stop-color="#FF00EA"/>
</linearGradient>
<linearGradient id="paint3_linear_102_11" x1="20.1377" y1="70.9988" x2="56.2929" y2="51.9993" gradientUnits="userSpaceOnUse">
<stop stop-color="#2600FC"/>
<stop offset="1" stop-color="#FF00EA"/>
</linearGradient>
<clipPath id="clip0_102_11">
<rect width="71" height="71" fill="white"/>
</clipPath>
</defs>
</svg>
