<svg width="208" height="24" viewBox="0 0 208 24" fill="none" xmlns="http://www.w3.org/2000/svg">
<path d="M18.0071 1.18182V23H14.9815L3.89134 6.99858H3.68892V23H0.397017V1.18182H3.44389L14.5447 17.2045H14.7472V1.18182H18.0071ZM36.8397 1.18182H40.1422V15.532C40.1422 17.0589 39.7836 18.4119 39.0662 19.5909C38.3489 20.7628 37.3404 21.6861 36.0407 22.3608C34.7409 23.0284 33.2175 23.3622 31.4703 23.3622C29.7303 23.3622 28.2104 23.0284 26.9107 22.3608C25.611 21.6861 24.6025 20.7628 23.8851 19.5909C23.1678 18.4119 22.8091 17.0589 22.8091 15.532V1.18182H26.101V15.2656C26.101 16.2528 26.3176 17.13 26.7509 17.897C27.1912 18.6641 27.8127 19.2678 28.6152 19.7081C29.4178 20.1413 30.3695 20.358 31.4703 20.358C32.5783 20.358 33.5336 20.1413 34.3361 19.7081C35.1458 19.2678 35.7637 18.6641 36.1898 17.897C36.623 17.13 36.8397 16.2528 36.8397 15.2656V1.18182ZM44.9283 23V1.18182H58.4581V4.01562H48.2202V10.6634H57.4886V13.4865H48.2202V23H44.9283ZM65.7983 1.18182V23H62.5064V1.18182H65.7983ZM96.6532 8.27699H93.3294C93.2015 7.56676 92.9636 6.94176 92.6156 6.40199C92.2676 5.86222 91.8414 5.40412 91.3372 5.0277C90.8329 4.65128 90.2683 4.36719 89.6433 4.17543C89.0254 3.98366 88.3684 3.88778 87.6724 3.88778C86.4153 3.88778 85.2896 4.20384 84.2953 4.83594C83.3081 5.46804 82.5268 6.39489 81.9515 7.61648C81.3833 8.83807 81.0993 10.3295 81.0993 12.0909C81.0993 13.8665 81.3833 15.3651 81.9515 16.5866C82.5268 17.8082 83.3116 18.7315 84.3059 19.3565C85.3002 19.9815 86.4189 20.294 87.6618 20.294C88.3507 20.294 89.0041 20.2017 89.622 20.017C90.247 19.8253 90.8116 19.5447 91.3159 19.1754C91.8201 18.8061 92.2463 18.3551 92.5943 17.8224C92.9494 17.2827 93.1944 16.6648 93.3294 15.9688L96.6532 15.9794C96.4757 17.0518 96.1312 18.0391 95.6199 18.9411C95.1156 19.8359 94.4657 20.6101 93.6703 21.2635C92.8819 21.9098 91.9799 22.4105 90.9643 22.7656C89.9487 23.1207 88.8407 23.2983 87.6404 23.2983C85.7512 23.2983 84.068 22.8509 82.5907 21.956C81.1135 21.054 79.9487 19.7649 79.0964 18.0888C78.2512 16.4126 77.8287 14.4134 77.8287 12.0909C77.8287 9.76136 78.2548 7.76207 79.1071 6.09304C79.9593 4.4169 81.1241 3.13139 82.6014 2.23651C84.0787 1.33452 85.7583 0.883522 87.6404 0.883522C88.7981 0.883522 89.8777 1.05043 90.8791 1.38423C91.8876 1.71094 92.7931 2.19389 93.5957 2.8331C94.3983 3.4652 95.0623 4.23935 95.5879 5.15554C96.1135 6.06463 96.4686 7.10511 96.6532 8.27699ZM119.545 12.0909C119.545 14.4205 119.119 16.4233 118.266 18.0994C117.414 19.7685 116.246 21.054 114.761 21.956C113.284 22.8509 111.604 23.2983 109.722 23.2983C107.833 23.2983 106.146 22.8509 104.662 21.956C103.185 21.054 102.02 19.7649 101.168 18.0888C100.315 16.4126 99.8892 14.4134 99.8892 12.0909C99.8892 9.76136 100.315 7.76207 101.168 6.09304C102.02 4.4169 103.185 3.13139 104.662 2.23651C106.146 1.33452 107.833 0.883522 109.722 0.883522C111.604 0.883522 113.284 1.33452 114.761 2.23651C116.246 3.13139 117.414 4.4169 118.266 6.09304C119.119 7.76207 119.545 9.76136 119.545 12.0909ZM116.285 12.0909C116.285 10.3153 115.997 8.82031 115.422 7.60582C114.854 6.38423 114.072 5.46094 113.078 4.83594C112.091 4.20384 110.972 3.88778 109.722 3.88778C108.465 3.88778 107.343 4.20384 106.356 4.83594C105.369 5.46094 104.587 6.38423 104.012 7.60582C103.444 8.82031 103.16 10.3153 103.16 12.0909C103.16 13.8665 103.444 15.3651 104.012 16.5866C104.587 17.8011 105.369 18.7244 106.356 19.3565C107.343 19.9815 108.465 20.294 109.722 20.294C110.972 20.294 112.091 19.9815 113.078 19.3565C114.072 18.7244 114.854 17.8011 115.422 16.5866C115.997 15.3651 116.285 13.8665 116.285 12.0909ZM126.941 1.18182V23H123.649V1.18182H126.941ZM149.345 1.18182V23H146.319L135.229 6.99858H135.027V23H131.735V1.18182H134.782L145.883 17.2045H146.085V1.18182H149.345ZM166.047 6.91335C165.933 5.90483 165.464 5.12358 164.641 4.5696C163.817 4.00852 162.78 3.72798 161.53 3.72798C160.635 3.72798 159.861 3.87003 159.207 4.15412C158.554 4.43111 158.046 4.81463 157.684 5.30469C157.329 5.78764 157.151 6.33807 157.151 6.95597C157.151 7.47443 157.272 7.92187 157.513 8.29829C157.762 8.67472 158.085 8.99077 158.483 9.24645C158.888 9.49503 159.321 9.70455 159.783 9.875C160.244 10.0384 160.688 10.1733 161.114 10.2798L163.245 10.8338C163.941 11.0043 164.655 11.2351 165.386 11.5263C166.118 11.8175 166.796 12.201 167.421 12.6768C168.046 13.1527 168.55 13.7422 168.934 14.4453C169.325 15.1484 169.52 15.9901 169.52 16.9702C169.52 18.206 169.2 19.3033 168.561 20.2621C167.929 21.2209 167.009 21.9773 165.802 22.5312C164.602 23.0852 163.149 23.3622 161.445 23.3622C159.811 23.3622 158.398 23.103 157.205 22.5845C156.011 22.0661 155.077 21.331 154.403 20.3793C153.728 19.4205 153.355 18.2841 153.284 16.9702H156.587C156.651 17.7585 156.906 18.4155 157.354 18.9411C157.808 19.4595 158.387 19.8466 159.09 20.1023C159.8 20.3509 160.578 20.4751 161.423 20.4751C162.354 20.4751 163.181 20.3295 163.906 20.0384C164.637 19.7401 165.212 19.3281 165.631 18.8026C166.05 18.2699 166.26 17.6484 166.26 16.9382C166.26 16.2919 166.075 15.7628 165.706 15.3509C165.344 14.9389 164.85 14.598 164.225 14.3281C163.607 14.0582 162.908 13.8203 162.126 13.6143L159.548 12.9112C157.801 12.4354 156.416 11.7358 155.393 10.8125C154.378 9.8892 153.87 8.66761 153.87 7.14773C153.87 5.89062 154.211 4.79332 154.893 3.85582C155.575 2.91832 156.498 2.19034 157.663 1.67188C158.827 1.14631 160.141 0.883522 161.604 0.883522C163.082 0.883522 164.385 1.14276 165.514 1.66122C166.651 2.17969 167.545 2.89347 168.199 3.80256C168.852 4.70454 169.193 5.74148 169.222 6.91335H166.047ZM173.454 23V1.18182H187.133V4.01562H176.746V10.6634H186.419V13.4865H176.746V20.1662H187.26V23H173.454ZM190.454 4.01562V1.18182H207.339V4.01562H200.532V23H197.251V4.01562H190.454Z" fill="url(#paint0_linear_180_12417)"/>
<defs>
<linearGradient id="paint0_linear_180_12417" x1="-5.08029" y1="12.4866" x2="250.841" y2="12.4866" gradientUnits="userSpaceOnUse">
<stop stop-color="#A14FF4"/>
<stop offset="0.11044" stop-color="#BAB1EB"/>
<stop offset="0.201489" stop-color="#B374F4"/>
<stop offset="0.323159" stop-color="#D9B4FF"/>
<stop offset="0.402501" stop-color="#FFA768"/>
<stop offset="0.474635" stop-color="#FFAA7A"/>
<stop offset="0.825823" stop-color="#F4C047"/>
<stop offset="0.97"/>
<stop offset="1"/>
</linearGradient>
</defs>
</svg>
