<svg width="308" height="92" viewBox="0 0 308 92" fill="none" xmlns="http://www.w3.org/2000/svg">
<g filter="url(#filter0_bd_180_12415)">
<rect x="23" y="23" width="262" height="46" rx="15" fill="#FFFDC6" fill-opacity="0.2" shape-rendering="crispEdges"/>
<rect x="24.5" y="24.5" width="259" height="43" rx="13.5" stroke="white" stroke-width="3" shape-rendering="crispEdges"/>
</g>
<path d="M70.0071 35.1818V57H66.9815L55.8913 40.9986H55.6889V57H52.397V35.1818H55.4439L66.5447 51.2045H66.7472V35.1818H70.0071ZM88.8397 35.1818H92.1422V49.532C92.1422 51.0589 91.7836 52.4119 91.0662 53.5909C90.3489 54.7628 89.3404 55.6861 88.0407 56.3608C86.7409 57.0284 85.2175 57.3622 83.4703 57.3622C81.7303 57.3622 80.2104 57.0284 78.9107 56.3608C77.611 55.6861 76.6025 54.7628 75.8851 53.5909C75.1678 52.4119 74.8091 51.0589 74.8091 49.532V35.1818H78.101V49.2656C78.101 50.2528 78.3176 51.13 78.7509 51.897C79.1912 52.6641 79.8127 53.2678 80.6152 53.7081C81.4178 54.1413 82.3695 54.358 83.4703 54.358C84.5783 54.358 85.5336 54.1413 86.3361 53.7081C87.1458 53.2678 87.7637 52.6641 88.1898 51.897C88.623 51.13 88.8397 50.2528 88.8397 49.2656V35.1818ZM96.9283 57V35.1818H110.458V38.0156H100.22V44.6634H109.489V47.4865H100.22V57H96.9283ZM117.798 35.1818V57H114.506V35.1818H117.798ZM148.653 42.277H145.329C145.202 41.5668 144.964 40.9418 144.616 40.402C144.268 39.8622 143.841 39.4041 143.337 39.0277C142.833 38.6513 142.268 38.3672 141.643 38.1754C141.025 37.9837 140.368 37.8878 139.672 37.8878C138.415 37.8878 137.29 38.2038 136.295 38.8359C135.308 39.468 134.527 40.3949 133.952 41.6165C133.383 42.8381 133.099 44.3295 133.099 46.0909C133.099 47.8665 133.383 49.3651 133.952 50.5866C134.527 51.8082 135.312 52.7315 136.306 53.3565C137.3 53.9815 138.419 54.294 139.662 54.294C140.351 54.294 141.004 54.2017 141.622 54.017C142.247 53.8253 142.812 53.5447 143.316 53.1754C143.82 52.8061 144.246 52.3551 144.594 51.8224C144.949 51.2827 145.194 50.6648 145.329 49.9688L148.653 49.9794C148.476 51.0518 148.131 52.0391 147.62 52.9411C147.116 53.8359 146.466 54.6101 145.67 55.2635C144.882 55.9098 143.98 56.4105 142.964 56.7656C141.949 57.1207 140.841 57.2983 139.64 57.2983C137.751 57.2983 136.068 56.8509 134.591 55.956C133.113 55.054 131.949 53.7649 131.096 52.0888C130.251 50.4126 129.829 48.4134 129.829 46.0909C129.829 43.7614 130.255 41.7621 131.107 40.093C131.959 38.4169 133.124 37.1314 134.601 36.2365C136.079 35.3345 137.758 34.8835 139.64 34.8835C140.798 34.8835 141.878 35.0504 142.879 35.3842C143.888 35.7109 144.793 36.1939 145.596 36.8331C146.398 37.4652 147.062 38.2393 147.588 39.1555C148.113 40.0646 148.469 41.1051 148.653 42.277ZM171.545 46.0909C171.545 48.4205 171.119 50.4233 170.266 52.0994C169.414 53.7685 168.246 55.054 166.761 55.956C165.284 56.8509 163.604 57.2983 161.722 57.2983C159.833 57.2983 158.146 56.8509 156.662 55.956C155.185 55.054 154.02 53.7649 153.168 52.0888C152.315 50.4126 151.889 48.4134 151.889 46.0909C151.889 43.7614 152.315 41.7621 153.168 40.093C154.02 38.4169 155.185 37.1314 156.662 36.2365C158.146 35.3345 159.833 34.8835 161.722 34.8835C163.604 34.8835 165.284 35.3345 166.761 36.2365C168.246 37.1314 169.414 38.4169 170.266 40.093C171.119 41.7621 171.545 43.7614 171.545 46.0909ZM168.285 46.0909C168.285 44.3153 167.997 42.8203 167.422 41.6058C166.854 40.3842 166.072 39.4609 165.078 38.8359C164.091 38.2038 162.972 37.8878 161.722 37.8878C160.465 37.8878 159.343 38.2038 158.356 38.8359C157.369 39.4609 156.587 40.3842 156.012 41.6058C155.444 42.8203 155.16 44.3153 155.16 46.0909C155.16 47.8665 155.444 49.3651 156.012 50.5866C156.587 51.8011 157.369 52.7244 158.356 53.3565C159.343 53.9815 160.465 54.294 161.722 54.294C162.972 54.294 164.091 53.9815 165.078 53.3565C166.072 52.7244 166.854 51.8011 167.422 50.5866C167.997 49.3651 168.285 47.8665 168.285 46.0909ZM178.941 35.1818V57H175.649V35.1818H178.941ZM201.345 35.1818V57H198.319L187.229 40.9986H187.027V57H183.735V35.1818H186.782L197.883 51.2045H198.085V35.1818H201.345ZM218.047 40.9134C217.933 39.9048 217.464 39.1236 216.641 38.5696C215.817 38.0085 214.78 37.728 213.53 37.728C212.635 37.728 211.861 37.87 211.207 38.1541C210.554 38.4311 210.046 38.8146 209.684 39.3047C209.329 39.7876 209.151 40.3381 209.151 40.956C209.151 41.4744 209.272 41.9219 209.513 42.2983C209.762 42.6747 210.085 42.9908 210.483 43.2464C210.888 43.495 211.321 43.7045 211.783 43.875C212.244 44.0384 212.688 44.1733 213.114 44.2798L215.245 44.8338C215.941 45.0043 216.655 45.2351 217.386 45.5263C218.118 45.8175 218.796 46.201 219.421 46.6768C220.046 47.1527 220.55 47.7422 220.934 48.4453C221.325 49.1484 221.52 49.9901 221.52 50.9702C221.52 52.206 221.2 53.3033 220.561 54.2621C219.929 55.2209 219.009 55.9773 217.802 56.5312C216.602 57.0852 215.149 57.3622 213.445 57.3622C211.811 57.3622 210.398 57.103 209.205 56.5845C208.011 56.0661 207.077 55.331 206.403 54.3793C205.728 53.4205 205.355 52.2841 205.284 50.9702H208.587C208.651 51.7585 208.906 52.4155 209.354 52.9411C209.808 53.4595 210.387 53.8466 211.09 54.1023C211.8 54.3509 212.578 54.4751 213.423 54.4751C214.354 54.4751 215.181 54.3295 215.906 54.0384C216.637 53.7401 217.212 53.3281 217.631 52.8026C218.05 52.2699 218.26 51.6484 218.26 50.9382C218.26 50.2919 218.075 49.7628 217.706 49.3509C217.344 48.9389 216.85 48.598 216.225 48.3281C215.607 48.0582 214.908 47.8203 214.126 47.6143L211.548 46.9112C209.801 46.4354 208.416 45.7358 207.393 44.8125C206.378 43.8892 205.87 42.6676 205.87 41.1477C205.87 39.8906 206.211 38.7933 206.893 37.8558C207.575 36.9183 208.498 36.1903 209.663 35.6719C210.827 35.1463 212.141 34.8835 213.604 34.8835C215.082 34.8835 216.385 35.1428 217.514 35.6612C218.651 36.1797 219.545 36.8935 220.199 37.8026C220.852 38.7045 221.193 39.7415 221.222 40.9134H218.047ZM225.454 57V35.1818H239.133V38.0156H228.746V44.6634H238.419V47.4865H228.746V54.1662H239.26V57H225.454ZM242.454 38.0156V35.1818H259.339V38.0156H252.532V57H249.251V38.0156H242.454Z" fill="url(#paint0_linear_180_12415)"/>
<defs>
<filter id="filter0_bd_180_12415" x="0.799999" y="0.799999" width="306.4" height="90.4" filterUnits="userSpaceOnUse" color-interpolation-filters="sRGB">
<feFlood flood-opacity="0" result="BackgroundImageFix"/>
<feGaussianBlur in="BackgroundImageFix" stdDeviation="5"/>
<feComposite in2="SourceAlpha" operator="in" result="effect1_backgroundBlur_180_12415"/>
<feColorMatrix in="SourceAlpha" type="matrix" values="0 0 0 0 0 0 0 0 0 0 0 0 0 0 0 0 0 0 127 0" result="hardAlpha"/>
<feOffset/>
<feGaussianBlur stdDeviation="11.1"/>
<feComposite in2="hardAlpha" operator="out"/>
<feColorMatrix type="matrix" values="0 0 0 0 0 0 0 0 0 0 0 0 0 0 0 0 0 0 0.1 0"/>
<feBlend mode="normal" in2="effect1_backgroundBlur_180_12415" result="effect2_dropShadow_180_12415"/>
<feBlend mode="normal" in="SourceGraphic" in2="effect2_dropShadow_180_12415" result="shape"/>
</filter>
<linearGradient id="paint0_linear_180_12415" x1="46.9197" y1="46.4866" x2="302.841" y2="46.4866" gradientUnits="userSpaceOnUse">
<stop stop-color="#A14FF4"/>
<stop offset="0.11044" stop-color="#BAB1EB"/>
<stop offset="0.201489" stop-color="#B374F4"/>
<stop offset="0.323159" stop-color="#D9B4FF"/>
<stop offset="0.402501" stop-color="#FFA768"/>
<stop offset="0.474635" stop-color="#FFAA7A"/>
<stop offset="0.825823" stop-color="#F4C047"/>
<stop offset="0.97"/>
<stop offset="1"/>
</linearGradient>
</defs>
</svg>
