<svg width="507" height="56" viewBox="0 0 507 56" fill="none" xmlns="http://www.w3.org/2000/svg">
<path d="M12.76 55H0.76V1.4H13.56L30.92 28.28L35.4 35.48H36.2L36.04 28.28V1.4H48.04V55H35.24L18.6 29.64L13.4 21.4H12.6L12.76 29.64V55ZM70.3219 55.8C59.7619 55.8 55.3619 48.84 55.3619 40.28V14.76H67.2819V37.88C67.2819 43.48 69.2019 45.48 75.2019 45.48C80.9619 45.48 83.4419 43.64 83.4419 37.56V14.76H95.3619V55H84.2419V47.96H83.8419C81.6019 52.6 77.3619 55.8 70.3219 55.8ZM114.791 55H102.791V1.4H143.031V12.2H114.791V24.44H141.831V35.16H114.791V55ZM159.694 10.2H147.934L147.774 1.4H159.694V10.2ZM159.934 55H147.934V14.76H159.934V55Z" fill="url(#paint0_linear_180_12413)"/>
<path d="M206.412 55.8C190.332 55.8 180.732 44.92 180.732 28.2C180.732 11.48 190.332 0.599999 206.412 0.599999C222.252 0.599999 230.812 8.92 230.812 22.2V22.92H218.012V22.52C218.012 14.84 214.812 12.2 206.332 12.2C197.292 12.2 193.532 15.48 193.532 28.2C193.532 40.92 197.292 44.2 206.332 44.2C214.812 44.2 218.012 41.56 218.012 33.88V33.48H230.812V34.2C230.812 47.48 222.252 55.8 206.412 55.8ZM256.286 55.8C243.326 55.8 235.646 47.64 235.646 34.92C235.646 22.12 243.326 13.96 256.286 13.96C269.166 13.96 276.686 22.12 276.686 34.92C276.686 47.64 269.166 55.8 256.286 55.8ZM256.286 45.24C262.766 45.24 265.006 42.68 265.006 34.92C265.006 27.08 262.766 24.52 256.286 24.52C249.726 24.52 247.486 27.08 247.486 34.92C247.486 42.68 249.726 45.24 256.286 45.24ZM293.444 10.2H281.684L281.524 1.4H293.444V10.2ZM293.684 55H281.684V14.76H293.684V55ZM312.288 55H300.368V14.76H311.488V21.8H311.968C314.128 17.24 318.448 13.96 325.488 13.96C335.968 13.96 340.448 20.92 340.448 29.48V55H328.448V31.88C328.448 26.28 326.608 24.28 320.528 24.28C314.768 24.28 312.288 26.12 312.288 32.2V55ZM370.597 55.8C354.837 55.8 347.557 49.4 347.557 37.56V36.52H359.317V37.32C359.317 43.24 361.477 44.92 371.157 44.92C377.957 44.92 379.637 43.56 379.637 39.96C379.637 36.36 378.837 35.08 371.317 33.8L361.877 32.12C351.637 30.36 347.317 25.16 347.317 16.84C347.317 8.68 353.317 0.599999 368.677 0.599999C383.957 0.599999 390.357 8.52 390.357 19.16V19.8H378.517V18.92C378.517 13.32 376.197 11.48 368.277 11.48C361.397 11.48 359.237 13 359.237 16.36C359.237 19.8 360.677 20.6 366.917 21.8L376.437 23.64C387.717 25.8 391.557 31.72 391.557 39.56C391.557 48.12 385.797 55.8 370.597 55.8ZM415.338 55.8C401.498 55.8 395.178 47.72 395.178 35C395.178 22.12 402.858 13.96 415.418 13.96C427.498 13.96 434.618 21.16 434.618 31.64C434.618 33.88 434.298 36.2 434.057 37.56H406.458C406.698 43.16 408.938 45.4 415.498 45.4C420.298 45.4 422.378 44.36 422.378 41.88V41.4H434.218V42.2C434.218 50.76 426.858 55.8 415.338 55.8ZM415.018 23.8C409.258 23.8 407.018 26.04 406.538 30.28H423.098C423.338 26.12 420.618 23.8 415.018 23.8ZM458.615 55.16C448.135 55.16 443.095 51.32 443.095 41.8V24.68H436.695V14.76H443.415L445.655 5.4H455.095V14.76H466.455V24.68H455.095V40.44C455.095 43.96 456.295 44.36 461.495 44.36H466.455V54.36C464.535 54.76 461.415 55.16 458.615 55.16ZM489.532 55.8C476.892 55.8 470.732 51.08 470.732 41.32V41.08H482.172V42.76C482.172 45.72 483.932 46.36 489.772 46.36C494.652 46.36 495.452 45.64 495.452 43.64C495.452 41.48 494.332 41 488.972 40.04L482.892 38.92C474.972 37.48 470.652 34.12 470.652 26.68C470.652 19.24 476.732 13.96 488.172 13.96C498.012 13.96 505.532 18.6 505.532 27.64V28.76H494.092V27.64C494.092 25 492.972 23.56 487.852 23.56C483.052 23.56 481.932 24.6 481.932 26.52C481.932 28.44 482.652 29 487.452 29.96L494.812 31.48C503.292 33.08 506.812 36.92 506.812 43.48C506.812 51 500.652 55.8 489.532 55.8Z" fill="black"/>
<defs>
<linearGradient id="paint0_linear_180_12413" x1="22.5" y1="17" x2="142.666" y2="75.5156" gradientUnits="userSpaceOnUse">
<stop stop-color="#2600FC"/>
<stop offset="1" stop-color="#FF00EA"/>
</linearGradient>
</defs>
</svg>
