<svg width="25" height="25" viewBox="0 0 25 25" fill="none" xmlns="http://www.w3.org/2000/svg">
<path d="M24.6284 15.5169C22.9605 22.2092 16.1822 26.2958 9.47761 24.6268C2.78524 22.9537 -1.29477 16.1755 0.373213 9.48313C2.04119 2.79079 8.81532 -1.29579 15.5036 0.373201C22.2123 2.02174 26.2923 8.82044 24.6284 15.5169Z" fill="#000008"/>
<path d="M20.2213 16.3595L17.6419 19.0544C17.5859 19.113 17.518 19.1596 17.4426 19.1915C17.3672 19.2234 17.2859 19.2399 17.2037 19.2398H4.97621C4.91786 19.2398 4.86079 19.2232 4.812 19.1921C4.76321 19.1609 4.72483 19.1165 4.70157 19.0644C4.67832 19.0123 4.6712 18.9547 4.6811 18.8986C4.69099 18.8426 4.71746 18.7906 4.75727 18.7491L7.33859 16.0542C7.39452 15.9958 7.46214 15.9492 7.53728 15.9173C7.61243 15.8854 7.6935 15.8689 7.77547 15.8688H20.0023C20.0607 15.8688 20.1177 15.8854 20.1665 15.9166C20.2153 15.9477 20.2536 15.9921 20.277 16.0442C20.3002 16.0964 20.3073 16.154 20.2974 16.21C20.2875 16.266 20.2611 16.318 20.2213 16.3595ZM17.6419 10.9328C17.5859 10.8742 17.518 10.8276 17.4426 10.7957C17.3672 10.7638 17.2859 10.7473 17.2037 10.7474H4.97621C4.91786 10.7474 4.86079 10.764 4.812 10.7952C4.76321 10.8263 4.72483 10.8707 4.70157 10.9228C4.67832 10.975 4.6712 11.0326 4.6811 11.0886C4.69099 11.1446 4.71746 11.1966 4.75727 11.2381L7.33859 13.933C7.39452 13.9914 7.46214 14.038 7.53728 14.0699C7.61243 14.1018 7.6935 14.1183 7.77547 14.1184H20.0023C20.0607 14.1184 20.1177 14.1018 20.1665 14.0707C20.2153 14.0395 20.2536 13.9951 20.277 13.943C20.3002 13.8909 20.3073 13.8332 20.2974 13.7772C20.2875 13.7212 20.2611 13.6692 20.2213 13.6277L17.6419 10.9328ZM4.97621 8.99703H17.2037C17.2859 8.99706 17.3672 8.98063 17.4426 8.94873C17.518 8.91683 17.5859 8.87016 17.6419 8.81162L20.2213 6.11672C20.2611 6.07517 20.2875 6.02319 20.2974 5.96717C20.3073 5.91116 20.3002 5.85355 20.277 5.80142C20.2536 5.74929 20.2153 5.70492 20.1665 5.67375C20.1177 5.64258 20.0607 5.62598 20.0023 5.62598H7.77547C7.6935 5.62611 7.61243 5.64264 7.53728 5.67453C7.46214 5.70642 7.39452 5.753 7.33859 5.81138L4.75793 8.50628C4.71817 8.54779 4.69171 8.59972 4.68179 8.65566C4.67187 8.71162 4.67893 8.76918 4.70211 8.82129C4.72528 8.87339 4.76356 8.91776 4.81225 8.94898C4.86094 8.9802 4.91792 8.99689 4.97621 8.99703Z" fill="url(#paint0_linear_180_11569)"/>
<defs>
<linearGradient id="paint0_linear_180_11569" x1="5.99569" y1="19.5643" x2="18.4443" y2="5.15936" gradientUnits="userSpaceOnUse">
<stop offset="0.08" stop-color="#9945FF"/>
<stop offset="0.3" stop-color="#8752F3"/>
<stop offset="0.5" stop-color="#5497D5"/>
<stop offset="0.6" stop-color="#43B4CA"/>
<stop offset="0.72" stop-color="#28E0B9"/>
<stop offset="0.97" stop-color="#19FB9B"/>
</linearGradient>
</defs>
</svg>
